<svg xmlns="http://www.w3.org/2000/svg" xmlns:xlink="http://www.w3.org/1999/xlink" viewBox="0 0 1920 1080"><defs><style>.cls-1{fill:url(#Íîâûé_îáðàçåö_ãðàäèåíòà_1);}</style><linearGradient id="Íîâûé_îáðàçåö_ãðàäèåíòà_1" x1="85.87" y1="540" x2="1834.13" y2="540" gradientUnits="userSpaceOnUse"><stop offset="0" stop-color="#fec053"/><stop offset="0.47" stop-color="#f2203e"/><stop offset="0.71" stop-color="#b71fa8"/><stop offset="1" stop-color="#5351d6"/></linearGradient></defs><g id="_Camada_2" data-name="&lt;Camada&gt;"><path class="cls-1" d="M170.36,331.16c.49-5.8.17-9.66-2.09-8.7-43.18,31.26-47.05,84.43-46.4,116s14.82,39.53,17,46.4-4.3,11.6-12.68,8.6-24.27-12.68-33.29-26.21S86.21,437.83,86,413.12c0-.25,0-.49,0-.74-.1-20.73,4.59-40.93,16.76-57.71,25.57-35.29,50.53-61.3,78.62-63.14,32.87-2.15,36.2,17.4,36.2,17.4s-2,267.24-3.76,297.26-27.66,52.69-44.9,63.81-15.62-8.06-13.37-11.6,11.44-28.84,12.25-52.21C168,589.6,169.88,337,170.36,331.16ZM1832.62,585.73c-3.22,23.52-23.2,43.18-43.82,44.47s-29-6.44-46.73-32.37-11.81-96.42-11.81-115.32-1.72-20.2-6.45-10.74c-7.73,17.18-28.78,77.87-27.49,84,1,27.72,1,58.33-20,57.68s-23.53-9.66-30.62-35.12-10-94.09-9.77-108.92-6-5.8-8.81.65-21.27,51.77-25.35,67.45-2.57,49.41-2.57,69.18-4.09,22.55-26.43,24.27-26.21-14-25.78-25.78-5.15-8.37-6-4.51c-5.37,17.62-18.69,30.29-39.1,30.08-32.87-.65-44-29.65-44.25-38.46s-4.51-5.15-7.52-.43c-9,15.47-30.08,37.6-59.94,38.46s-38.88-17-43.39-25.57-4.94-11-6.88-9.88c-8.38,24.92-27.39,32.44-42.86,33.73-48,1.61-55.42-41.25-60.9-77.66s7.31-71.86,10.74-82.17-4.94-11.39-11-11-24-1.61-25.89.65c-13.86,54.78-79.38,141.35-84.32,146.72s-.21,71.75,0,100.33-20.84,81.2-77.34,83.35-60.14-35.66-60.79-46.4,2.36-18.27,6.45-27.72c24.27-50.05,74.54-82.38,82-87.64s8.06-7.74,8.91-10.53c1.08-23-1.5-23-2.79-21-2.36,3.43-24.06,35.44-56.92,35.39s-42.11-21.65-45.76-30-6.45-10.1-8.17-3.65-9.23,34.58-44.47,33.64-43.82-33-44-39.66-4.51-6-5.59-1.5S862.8,631,816.82,630.87s-52.63-43.31-55.53-52.12-6.44-5.16-7.84,1.18c-2.58,11.28-14.18,49.3-58.32,49.3S647.76,569.51,647.54,559s-5.58-9.24-6.87-5.16c-23.2,50.91-58.43,72.83-94.74,76.4s-49.46-8.57-59.77-16.3-1.45-17.08,2.41-25,12.57-14,16.12-11.76c49,43.5,56.87-2.58,58.48-10.31,4-25.62-29.48-50.86-36.57-59.88s-10.53-8.17-11.28-6C461.83,598,428,629.23,405.76,630.2s-29.32-22.23-29-39-.16-114.07,0-133.08-4.35-10.64-8.7-6.13-19.55,29.43-31.37,53.49-32.11,101.83-32.11,113.43-7.09,11.28-25.46,11.28S259,608.29,259,601.2V416.07c0-7.09,6.12-9,11.76-9.34,27.93-.38,31.37,11.33,32.23,15.41s-3.23,65.63-4.19,83.68,6.44,12.89,7.41,10.31C330,419.46,366.45,406.57,386.1,407.21c30.29,1.94,38.35,27.07,38,34.48s-3.55,105.05-3.23,125.67,11.6,17.08,16.76,14.18c28-22.23,60.8-93.88,63.37-98.17s-10.95-7.31-13.74-27.93,10.52-30.29,19.76-41.46,27.07-13.11,39.53-9.45c27.28,8.16,4.83,42.64-.33,50.69s-14.17,16.44-11.6,19.34c32.87,16.43,73.15,59.61,73.8,72.18s-1,22.23,8,17.72,20.3-30.61,26.1-47.69c1.61-13.21,1.08-118,.43-120.41s-30.93.22-41.89-.21-13.75-.43-13.53-10.74c.86-22.34,8.38-24.28,11.81-25.14s42.54,2.58,46,2.58.21-52,.43-58,.64-13.11,15-13.75c31.37-.86,38,14.18,38,15.47s-1.08,56.93,0,58.43,24.27,0,46.83,0,20.62,8.06,21.43,18.37-8.86,14.5-11.6,14.5H700c-7.09,0-5.16,4.19-5.16,4.19s-2.57,123.41-2.25,154.67,8.38,32.87,18.69,36.24c22.23,8.86,41.25-48.48,42.21-53.64-.32-17.72-1-48.66,6.13-70.57,25.13-65.41,53.38-64.66,76.79-65.52S872,427.73,872,424.51c0-6.88.22-13.54,17.41-13.75,23.84.64,29.64,10,29.32,16.75s-1.83,126.32-1.83,142.86,2.58,30.08,22.13,31.15,26-27.93,25.13-32.22c-3.86-108.7,11.28-133.09,40.61-156.61s61.54-2.42,67,6.12,9.67,9,9.67,7.09c0-3.54-1.93-14.18,17.08-15.79s27.06,9.67,27.06,13.21-.48,121.65-1,133.89,2.58,12.09,4.83,9.19c27.39-33.52,43.34-86.2,45.92-92s2.58-9.83,1.61-12.09c-3.7-3.54-14.18-18.85-15.14-31.9s11.11-30.77,33.51-33.19,24.17,16.28,24,25.3,1.77,12.41,9,10.63,34.48-13,52.52-8.21,15.79,34.47,6.45,55.74-6.45,76.05-6.77,86.36,3.87,30.77,22.07,33.84c27.88,4.51,29.49-26.75,29.49-30.62-7.74-34.15-4.51-74.43-2.26-87,10.64-51.88,34.48-69.07,58.33-78.09s44.25,5.8,48.33,11.17,9,13.75,9.67,11.39c1.5-15.68,5.48-17.3,19.66-17.62s27.07,10.32,27.39,16.44-1.29,118-1.51,140.38,6.66,33.52,19.34,35c22.12,2.79,32-43.18,33.51-52.85s-.91-127.71-.59-131.9-1.77-10.15,14.34-10.47c20.78.64,31.58,9.34,32.06,15.3s-.8,46.57-1,57.85,4.35,12.72,4.35,5.64c5.16-35.77,23.42-79.27,47.27-78.79s29.86,16.49,33.72,25.51,2.15,74.22,1.67,85.66.32,12.89,3.86,13.21,3.87-5,4.57-11c15.47-82.92,22.56-109.34,48.76-112.35,27.29-1.72,40.39,16.11,40.18,27.71s-.06,115.47,1.07,132.39,11.44,29.64,21.11,30c17.24,0,20.46-30.47,22.39-42.55s10-12.41,12.41-10S1835.85,562.21,1832.62,585.73Zm-990-147.47c-11.81,0-39.74,5.15-42.1,71.75-.65,43.82-.86,91.73,31.36,90.44s40.18-54.78,40.39-80.78C872.25,496.69,877.41,439.76,842.6,438.26Zm210.13,0c-11.82,0-39.74,5.15-42.1,71.75-.65,43.82-.86,91.73,31.36,90.44s40.18-54.78,40.39-80.78C1082.38,496.69,1087.53,439.76,1052.73,438.26Zm32.41,217.61c-.17-9.36-4.68-4.59-8.34.31a66.76,66.76,0,0,1-6,7c-41.44,42-48.25,73.73-48.46,82-.21,8.49,5,22,23.31,24.81s21.91-10.42,26.21-15.68C1087.93,740.73,1085.36,667.47,1085.14,655.87Zm329.38-217.61c-11.81,0-39.74,5.15-42.1,71.75-.65,43.82-.86,91.73,31.36,90.44s40.18-54.78,40.39-80.78C1444.17,496.69,1449.32,439.76,1414.52,438.26Z"/></g></svg>